<svg width="35" height="34" viewBox="0 0 35 34" fill="none" xmlns="http://www.w3.org/2000/svg">
<rect width="35" height="34" rx="4" fill="#FEE6E6"/>
<path d="M24.25 11H21.925C21.7509 10.1536 21.2904 9.39301 20.6209 8.84654C19.9515 8.30007 19.1142 8.00109 18.25 8L16.75 8C15.8858 8.00109 15.0485 8.30007 14.3791 8.84654C13.7096 9.39301 13.2491 10.1536 13.075 11H10.75C10.5511 11 10.3603 11.079 10.2197 11.2197C10.079 11.3603 10 11.5511 10 11.75C10 11.9489 10.079 12.1397 10.2197 12.2803C10.3603 12.421 10.5511 12.5 10.75 12.5H11.5V22.25C11.5012 23.2442 11.8967 24.1973 12.5997 24.9003C13.3027 25.6033 14.2558 25.9988 15.25 26H19.75C20.7442 25.9988 21.6973 25.6033 22.4003 24.9003C23.1033 24.1973 23.4988 23.2442 23.5 22.25V12.5H24.25C24.4489 12.5 24.6397 12.421 24.7803 12.2803C24.921 12.1397 25 11.9489 25 11.75C25 11.5511 24.921 11.3603 24.7803 11.2197C24.6397 11.079 24.4489 11 24.25 11ZM16.75 9.5H18.25C18.7152 9.50057 19.1688 9.64503 19.5487 9.91358C19.9286 10.1821 20.2161 10.5616 20.3718 11H14.6282C14.7839 10.5616 15.0714 10.1821 15.4513 9.91358C15.8312 9.64503 16.2848 9.50057 16.75 9.5ZM22 22.25C22 22.8467 21.7629 23.419 21.341 23.841C20.919 24.2629 20.3467 24.5 19.75 24.5H15.25C14.6533 24.5 14.081 24.2629 13.659 23.841C13.2371 23.419 13 22.8467 13 22.25V12.5H22V22.25Z" fill="#C53030"/>
<path d="M16 21.5C16.1989 21.5 16.3897 21.421 16.5303 21.2803C16.671 21.1397 16.75 20.9489 16.75 20.75V16.25C16.75 16.0511 16.671 15.8603 16.5303 15.7197C16.3897 15.579 16.1989 15.5 16 15.5C15.8011 15.5 15.6103 15.579 15.4697 15.7197C15.329 15.8603 15.25 16.0511 15.25 16.25V20.75C15.25 20.9489 15.329 21.1397 15.4697 21.2803C15.6103 21.421 15.8011 21.5 16 21.5Z" fill="#C53030"/>
<path d="M19 21.5C19.1989 21.5 19.3897 21.421 19.5303 21.2803C19.671 21.1397 19.75 20.9489 19.75 20.75V16.25C19.75 16.0511 19.671 15.8603 19.5303 15.7197C19.3897 15.579 19.1989 15.5 19 15.5C18.8011 15.5 18.6103 15.579 18.4697 15.7197C18.329 15.8603 18.25 16.0511 18.25 16.25V20.75C18.25 20.9489 18.329 21.1397 18.4697 21.2803C18.6103 21.421 18.8011 21.5 19 21.5Z" fill="#C53030"/>
</svg>
