<svg width="34" height="34" viewBox="0 0 34 34" fill="none" xmlns="http://www.w3.org/2000/svg">
<rect width="34" height="34" rx="4" fill="#ECEFF2"/>
<path d="M21.992 8.69707L12.848 17.8411C12.4988 18.1884 12.2219 18.6016 12.0334 19.0567C11.8449 19.5118 11.7486 19.9997 11.75 20.4923V21.4996C11.75 21.6985 11.829 21.8892 11.9697 22.0299C12.1103 22.1705 12.3011 22.2496 12.5 22.2496H13.5072C13.9998 22.251 14.4878 22.1546 14.9429 21.9662C15.398 21.7777 15.8111 21.5008 16.1585 21.1516L25.3025 12.0076C25.7408 11.5682 25.9869 10.9729 25.9869 10.3523C25.9869 9.73171 25.7408 9.13644 25.3025 8.69707C24.8568 8.27099 24.2639 8.0332 23.6473 8.0332C23.0306 8.0332 22.4377 8.27099 21.992 8.69707ZM24.242 10.9471L15.098 20.0911C14.6751 20.5114 14.1035 20.748 13.5072 20.7496H13.25V20.4923C13.2516 19.8961 13.4882 19.3245 13.9085 18.9016L23.0525 9.75757C23.2127 9.60453 23.4257 9.51914 23.6473 9.51914C23.8688 9.51914 24.0818 9.60453 24.242 9.75757C24.3995 9.91545 24.4879 10.1293 24.4879 10.3523C24.4879 10.5753 24.3995 10.7892 24.242 10.9471Z" fill="#4A5568"/>
<path d="M25.25 14.7343C25.0511 14.7343 24.8603 14.8133 24.7197 14.9539C24.579 15.0946 24.5 15.2853 24.5 15.4843V19.25H21.5C20.9033 19.25 20.331 19.4871 19.909 19.909C19.4871 20.331 19.25 20.9033 19.25 21.5V24.5H11.75C11.1533 24.5 10.581 24.2629 10.159 23.841C9.73705 23.419 9.5 22.8467 9.5 22.25V11.75C9.5 11.1533 9.73705 10.581 10.159 10.159C10.581 9.73705 11.1533 9.5 11.75 9.5H18.5315C18.7304 9.5 18.9212 9.42098 19.0618 9.28033C19.2025 9.13968 19.2815 8.94891 19.2815 8.75C19.2815 8.55109 19.2025 8.36032 19.0618 8.21967C18.9212 8.07902 18.7304 8 18.5315 8H11.75C10.7558 8.00119 9.80267 8.39666 9.09967 9.09967C8.39666 9.80267 8.00119 10.7558 8 11.75L8 22.25C8.00119 23.2442 8.39666 24.1973 9.09967 24.9003C9.80267 25.6033 10.7558 25.9988 11.75 26H20.2573C20.7499 26.0014 21.238 25.9051 21.6932 25.7166C22.1484 25.5281 22.5618 25.2513 22.9093 24.902L24.9013 22.9085C25.2506 22.5612 25.5275 22.148 25.7161 21.6929C25.9047 21.2378 26.0012 20.7499 26 20.2573V15.4843C26 15.2853 25.921 15.0946 25.7803 14.9539C25.6397 14.8133 25.4489 14.7343 25.25 14.7343ZM21.8488 23.8415C21.5473 24.1423 21.166 24.3505 20.75 24.4415V21.5C20.75 21.3011 20.829 21.1103 20.9697 20.9697C21.1103 20.829 21.3011 20.75 21.5 20.75H24.4438C24.351 21.1651 24.143 21.5457 23.8438 21.848L21.8488 23.8415Z" fill="#4A5568"/>
</svg>
