<svg width="337" height="96" viewBox="0 0 337 96" fill="none" xmlns="http://www.w3.org/2000/svg">
<g clip-path="url(#clip0_788_1887)">
<mask id="mask0_788_1887" style="mask-type:luminance" maskUnits="userSpaceOnUse" x="0" y="0" width="96" height="96">
<path d="M96 0H0V96H96V0Z" fill="white"/>
</mask>
<g mask="url(#mask0_788_1887)">
<mask id="mask1_788_1887" style="mask-type:alpha" maskUnits="userSpaceOnUse" x="12" y="0" width="72" height="96">
<path d="M51.9998 4C51.9998 2.93914 52.4213 1.92172 53.1715 1.17157C53.9218 0.421427 54.9394 0 56.0002 0H80.0002C81.061 0 82.0781 0.421427 82.8283 1.17157C83.5786 1.92172 84 2.93914 84 4V92.0002C84 93.061 83.5786 94.0781 82.8283 94.8283C82.0781 95.5786 81.061 96 80.0002 96H16C14.9391 96 13.9217 95.5786 13.1716 94.8283C12.4214 94.0781 12 93.061 12 92.0002V51.9998C12 50.939 12.4214 49.9219 13.1716 49.1717C13.9217 48.4214 14.9391 48 16 48H32V28C32 26.9391 32.4214 25.9217 33.1716 25.1716C33.9217 24.4214 34.9392 24 36 24H51.9998V4Z" fill="white"/>
</mask>
<g mask="url(#mask1_788_1887)">
<path d="M84 0V96H51.9998V0H84Z" fill="url(#paint0_linear_788_1887)"/>
<g filter="url(#filter0_f_788_1887)">
<path d="M64.0003 28.4002V96.4003H32.0001V24.4001H60C61.0608 24.4001 62.0784 24.8216 62.8286 25.5717C63.5789 26.3219 64.0003 27.3393 64.0003 28.4002Z" fill="black" fill-opacity="0.2"/>
</g>
<g filter="url(#filter1_f_788_1887)">
<path d="M64.0003 29.9997V97.9996H32.0001V25.9998H60C61.0608 25.9998 62.0784 26.4211 62.8286 27.1713C63.5789 27.9214 64.0003 28.9389 64.0003 29.9997Z" fill="black" fill-opacity="0.18"/>
</g>
<path d="M64.0003 28V96H32.0001V24H60C61.0608 24 62.0784 24.4214 62.8286 25.1716C63.5789 25.9217 64.0003 26.9391 64.0003 28Z" fill="url(#paint1_linear_788_1887)"/>
<path d="M12 48V96H44V51.9998C44 50.939 43.5786 49.9219 42.8284 49.1717C42.0783 48.4214 41.0609 48 40 48H12Z" fill="url(#paint2_linear_788_1887)"/>
</g>
</g>
</g>
<path d="M248.061 0.0910187C219.12 1.21694 192.731 6.30176 184.152 12.4035C175.881 18.3056 183.971 24.6616 207.428 30.7271C211.844 31.8711 216.26 32.8699 222.233 34.1048C225.057 34.6859 227.409 35.2126 227.464 35.2671C227.536 35.3215 227.283 36.3385 226.921 37.5189C220.948 56.9502 221.69 74.8923 228.876 85.6794C231.247 89.2388 233.817 91.5088 237.545 93.3066C241.672 95.3043 245.364 96.1578 249.038 95.9762C253.78 95.7401 257.472 93.9786 261.038 90.2376C263.988 87.1685 266.214 83.3186 267.771 78.597C268.857 75.3282 269.327 72.9855 269.454 70.2252L269.563 67.9552L272.115 68.8087C277.291 70.5521 280.314 71.1514 284.078 71.1514C290.992 71.1514 299.245 68.9722 307.517 64.9588C314.612 61.5084 320.44 57.495 325.58 52.5373C336.367 42.1497 339.172 31.0176 333.218 22.3008C328.059 14.7644 316.584 8.78969 299.716 4.88528C289.743 2.57895 276.314 0.6903 265.888 0.1455C262.793 -0.0179443 251.59 -0.0542603 248.061 0.0910187ZM247.608 11.1142C273.454 13.366 295.01 19.7765 304.965 28.1665C307.336 30.1641 309.109 32.5975 310.449 35.7029C315.118 46.4718 305.978 57.0592 288.06 61.6173C283.608 62.7614 278.069 63.5241 274.323 63.5241C272.621 63.5241 269.707 63.2154 269.345 62.9793C269.219 62.9067 268.965 62.0532 268.766 61.0544C266.938 51.9562 261.002 43.4754 253.798 39.68C252.785 39.1352 252.495 38.8991 252.495 38.5904C252.495 37.41 251.735 27.3311 251.5 25.4425C250.721 19.1228 249.328 15.8358 246.92 14.6372C245.762 14.0743 243.464 14.0743 241.979 14.6554C239.011 15.7995 236.007 18.6869 233.075 23.2088C231.952 24.9521 229.998 28.8021 229.219 30.7815C228.948 31.5079 228.64 32.1072 228.568 32.1072C228.188 32.1072 212.822 28.1665 209.781 27.2948C201.274 24.8432 197.582 22.7366 197.89 20.4848C198.071 19.0501 199.356 17.8879 202.541 16.2353C208.242 13.2934 216.532 11.4774 227.428 10.7873C230.233 10.6057 244.441 10.8418 247.608 11.1142ZM245.454 20.7209C246.667 21.5381 247.536 23.9533 247.952 27.7488C248.169 29.6193 248.513 35.0673 248.513 36.5746V37.5189L245.78 36.6291C243.482 35.8845 239.952 34.8857 236.26 33.9232L235.5 33.7416L236.477 30.8723C238.595 24.6071 240.296 21.6289 242.359 20.6119C243.301 20.1579 244.694 20.2124 245.454 20.7209ZM237.165 36.7562C240.169 37.5008 242.631 38.2635 245.835 39.4076C249.273 40.6424 248.929 40.2792 249.147 42.9125C249.563 47.5433 251.264 52.4647 253.78 56.2783C255.138 58.3122 258.486 61.7444 260.422 63.0701L261.744 63.96L261.635 64.9769C261.255 68.3366 260.314 71.6054 258.938 74.4202C256.839 78.6333 254.287 81.3392 251.192 82.6285C250.396 82.9554 249.889 83.028 248.242 83.028C246.504 83.028 246.088 82.9736 245.002 82.5377C241.201 81.0304 237.817 77.5982 235.645 73.0219C234.142 69.862 232.93 65.322 232.369 60.8001C232.079 58.3304 232.079 50.6123 232.387 47.9065C232.694 45.1461 233.382 41.4233 234.07 38.7356C234.378 37.5371 234.649 36.5019 234.703 36.4111C234.83 36.2114 235.21 36.2477 237.165 36.7562ZM254.54 44.111C256.966 46.3265 259.011 49.6317 260.169 53.2092C260.821 55.1887 261.508 58.7117 261.291 58.9296C261.11 59.1112 259.499 57.4768 258.287 55.8606C256.911 54.0264 255.735 51.8654 254.812 49.4138C253.834 46.8169 252.875 43.0033 253.201 43.0033C253.273 43.0033 253.889 43.4936 254.54 44.111Z" fill="#48887B"/>
<line x1="140.5" y1="3.01648" x2="139.511" y2="93.011" stroke="#5C5C5C" stroke-opacity="0.333333" stroke-width="3"/>
<defs>
<filter id="filter0_f_788_1887" x="31.6001" y="24.0001" width="32.8002" height="72.8002" filterUnits="userSpaceOnUse" color-interpolation-filters="sRGB">
<feFlood flood-opacity="0" result="BackgroundImageFix"/>
<feBlend mode="normal" in="SourceGraphic" in2="BackgroundImageFix" result="shape"/>
<feGaussianBlur stdDeviation="0.2" result="effect1_foregroundBlur_788_1887"/>
</filter>
<filter id="filter1_f_788_1887" x="28.0001" y="21.9998" width="40.0002" height="79.9998" filterUnits="userSpaceOnUse" color-interpolation-filters="sRGB">
<feFlood flood-opacity="0" result="BackgroundImageFix"/>
<feBlend mode="normal" in="SourceGraphic" in2="BackgroundImageFix" result="shape"/>
<feGaussianBlur stdDeviation="2" result="effect1_foregroundBlur_788_1887"/>
</filter>
<linearGradient id="paint0_linear_788_1887" x1="46.6659" y1="-7.58995e-07" x2="88.8648" y2="89.447" gradientUnits="userSpaceOnUse">
<stop stop-color="#E6AD10"/>
<stop offset="1" stop-color="#C87E0E"/>
</linearGradient>
<linearGradient id="paint1_linear_788_1887" x1="31.9971" y1="24" x2="67.4861" y2="92.8258" gradientUnits="userSpaceOnUse">
<stop stop-color="#F6D751"/>
<stop offset="1" stop-color="#E6AD10"/>
</linearGradient>
<linearGradient id="paint2_linear_788_1887" x1="11.997" y1="48" x2="31.608" y2="94.4779" gradientUnits="userSpaceOnUse">
<stop stop-color="#F9E589"/>
<stop offset="1" stop-color="#F6D751"/>
</linearGradient>
<clipPath id="clip0_788_1887">
<rect width="96" height="96" fill="white"/>
</clipPath>
</defs>
</svg>
